<?xml version="1.0" encoding="UTF-8"?>
<svg width="40px" height="40px" viewBox="0 0 40 40" version="1.1" xmlns="http://www.w3.org/2000/svg" xmlns:xlink="http://www.w3.org/1999/xlink">
    <title>logo-abbr-dark</title>
    <g id="页面-1" stroke="none" stroke-width="1" fill="none" fill-rule="evenodd">
        <g id="桌面端-HD" transform="translate(-474.000000, -326.000000)">
            <g id="modal-new" transform="translate(458.000000, 294.000000)">
                <g id="logo-abbr-dark" transform="translate(16.000000, 32.000000)">
                    <rect id="base" fill="#004CE0" x="0" y="0" width="40" height="40" rx="4"></rect>
                    <g id="content" transform="translate(6.000000, 7.000000)">
                        <path d="M3.50960219,17.6635688 L3.50960219,17.5148699 L4.30658436,17.5148699 L4.30658436,17.133829 L3.50960219,17.133829 L3.50960219,17.0269517 L4.12894376,17.0269517 L4.12894376,16.6505576 L3.50960219,16.6505576 L3.50960219,16.552974 L4.21056241,16.552974 L4.21056241,16.1719331 L3.50960219,16.1719331 L3.50960219,16.0092937 L2.86145405,16.0092937 L2.86145405,16.1719331 L2.24211248,16.1719331 L2.24211248,16.552974 L2.86145405,16.552974 L2.86145405,16.6505576 L2.33333333,16.6505576 L2.33333333,17.0269517 L2.86145405,17.0269517 L2.86145405,17.133829 L2.2085048,17.133829 L2.2085048,17.5148699 L2.86145405,17.5148699 L2.86145405,17.6635688 L3.50960219,17.6635688 Z M1.44513032,17.6635688 L1.44513032,17.5195167 L2.10288066,17.5195167 L2.10288066,17.1384758 L1.44513032,17.1384758 L1.44513032,17.0269517 L2.01165981,17.0269517 L2.01165981,16.6505576 L1.44513032,16.6505576 L1.44513032,16.552974 L2.06447188,16.552974 L2.06447188,16.1719331 L1.44513032,16.1719331 L1.44513032,16.0092937 L0.806584362,16.0092937 L0.806584362,16.1719331 L0.139231824,16.1719331 L0.139231824,16.552974 L0.806584362,16.552974 L0.806584362,16.6505576 L0.259259259,16.6505576 L0.259259259,17.0269517 L0.806584362,17.0269517 L0.806584362,17.1384758 L0.0672153635,17.1384758 L0.0672153635,17.5195167 L0.806584362,17.5195167 L0.806584362,17.6635688 L1.44513032,17.6635688 Z M2.41015089,19.7639405 L2.85185185,19.3921933 C2.77503429,19.3085502 2.65020576,19.2109665 2.51577503,19.1226766 L3.97530864,19.1226766 L3.97530864,17.7239777 L0.432098765,17.7239777 L0.432098765,18.1328996 L3.28875171,18.1328996 L3.28875171,18.2304833 L0.614540466,18.2304833 L0.614540466,18.6068773 L3.28875171,18.6068773 L3.28875171,18.7137546 L0.403292181,18.7137546 L0.403292181,19.1226766 L2.13168724,19.1226766 L1.88203018,19.3317844 C2.07887517,19.4479554 2.30932785,19.633829 2.41015089,19.7639405 Z M3.85048011,20.3169145 L4.54663923,20.1356877 C4.48422497,19.866171 4.29698217,19.4711896 4.12414266,19.1737918 L3.47119342,19.3317844 C3.63923182,19.6431227 3.80246914,20.0566914 3.85048011,20.3169145 Z M0.604938272,20.330855 C0.777777778,20.098513 0.912208505,19.7546468 1.01303155,19.4665428 L0.408093278,19.2202602 C0.321673525,19.4944238 0.168038409,19.7964684 0,19.9962825 L0.604938272,20.330855 Z M2.80864198,20.3447955 C3.35116598,20.3447955 3.53840878,20.2007435 3.61522634,19.6384758 C3.43278464,19.605948 3.15432099,19.517658 3.01508916,19.4247212 C2.98628258,19.75 2.9478738,19.8011152 2.75102881,19.8011152 L2.05967078,19.8011152 C1.80041152,19.8011152 1.75720165,19.7871747 1.75720165,19.6524164 L1.75720165,19.2202602 L1.06584362,19.2202602 L1.06584362,19.66171 C1.06584362,20.1775093 1.24828532,20.3447955 1.98285322,20.3447955 L2.80864198,20.3447955 Z M4.9691358,16.9479554 C6.24622771,16.9154275 7.72496571,16.813197 8.92043896,16.6180297 L8.36831276,16 C7.44650206,16.1579926 6.05898491,16.2695167 4.7962963,16.3066914 C4.86351166,16.464684 4.95473251,16.7620818 4.9691358,16.9479554 Z M8.12825789,18.1375465 C8.35390947,17.8587361 8.63717421,17.4358736 8.88203018,17.0269517 L8.16186557,16.7620818 C8.01783265,17.1291822 7.75857339,17.5938662 7.54252401,17.8912639 L8.12825789,18.1375465 Z M7.26406036,20.4005576 L7.26406036,19.2527881 C7.67695473,19.6802974 8.18106996,20.0473978 8.69958848,20.2843866 C8.81961591,20.098513 9.05486968,19.8150558 9.22290809,19.6710037 C8.70919067,19.4804833 8.18587106,19.1830855 7.79218107,18.8438662 L9.07407407,18.8438662 L9.07407407,18.1840149 L7.26406036,18.1840149 L7.26406036,17.8076208 L6.79835391,17.8076208 L7.30246914,17.6310409 C7.26406036,17.4079926 7.12002743,17.0920074 6.96639232,16.8503717 L6.33264746,17.0641264 C6.45747599,17.2964684 6.57270233,17.5938662 6.61591221,17.8076208 L6.51989026,17.8076208 L6.51989026,18.1840149 L4.74828532,18.1840149 L4.74828532,18.8438662 L6.00137174,18.8438662 C5.61728395,19.1923792 5.09876543,19.4990706 4.57544582,19.6895911 C4.74348422,19.83829 4.978738,20.1217472 5.09876543,20.302974 C5.61728395,20.0613383 6.11179698,19.7035316 6.51989026,19.2806691 L6.51989026,20.4005576 L7.26406036,20.4005576 Z M5.49725652,18.1003717 L6.13580247,17.8355019 C6.06378601,17.5938662 5.86694102,17.2592937 5.67009602,17.0083643 L5.07956104,17.25 C5.26680384,17.5148699 5.44444444,17.8680297 5.49725652,18.1003717 Z M13.1069959,20.3773234 C13.2942387,20.3355019 13.4190672,20.2797398 13.5534979,20.0845725 C13.7215364,19.8429368 13.755144,19.0762082 13.7983539,16.9804833 C13.8007545,16.9386617 13.8019547,16.8631506 13.8025549,16.7980948 L13.803155,16.6950038 C13.803155,16.6845054 13.803155,16.6784387 13.803155,16.6784387 L12.3052126,16.6784387 C12.3628258,16.5018587 12.4156379,16.3252788 12.4588477,16.1486989 L11.7914952,16.0046468 C11.6906722,16.4786245 11.5130316,16.9711896 11.2969822,17.3289963 L11.2969822,16.2509294 L9.47736626,16.2509294 L9.47736626,19.1180297 L9.99108368,19.1180297 L9.99108368,16.8457249 L10.7592593,16.8457249 L10.7592593,19.0855019 L11.2969822,19.0855019 L11.2969822,17.6031599 C11.4410151,17.7100372 11.6234568,17.8587361 11.7098765,17.9423792 C11.8347051,17.7611524 11.9595336,17.5381041 12.0699588,17.2871747 L13.1310014,17.2871747 C13.1213992,17.9981413 13.1069959,18.5232342 13.0829904,18.8949814 C13.0253772,18.6579926 12.9437586,18.383829 12.8717421,18.1561338 L12.3964335,18.3048327 C12.4348422,18.4349442 12.473251,18.5836431 12.5068587,18.732342 L12.1611797,18.7973978 C12.3292181,18.4628253 12.4876543,18.0724907 12.5884774,17.7100372 L11.9595336,17.5381041 C11.8731139,18.035316 11.6714678,18.5789963 11.6042524,18.7137546 C11.5322359,18.8624535 11.4602195,18.9507435 11.3737997,18.9786245 C11.4458162,19.1319703 11.5418381,19.4107807 11.5754458,19.5269517 C11.68107,19.4618959 11.8443073,19.4061338 12.617284,19.2342007 C12.6268861,19.3039033 12.6364883,19.3689591 12.6460905,19.4247212 L13.0493827,19.2806691 C13.0253772,19.489777 12.9917695,19.6105948 12.9533608,19.66171 C12.9005487,19.7314126 12.8525377,19.75 12.7709191,19.75 C12.6604938,19.75 12.4588477,19.75 12.2283951,19.7314126 C12.3484225,19.9219331 12.4348422,20.214684 12.4444444,20.4052045 C12.6941015,20.4098513 12.9389575,20.4098513 13.1069959,20.3773234 Z M9.70301783,20.3866171 C10.058299,20.1542751 10.2839506,19.8568773 10.4279835,19.5362454 C10.6536351,19.8011152 10.941701,20.1496283 11.0809328,20.3633829 L11.5514403,20.010223 C11.3978052,19.7918216 11.0713306,19.4386617 10.845679,19.1877323 L10.4615912,19.4526022 C10.6152263,19.0762082 10.6584362,18.6672862 10.6584362,18.3001859 L10.6584362,17.0315985 L10.1303155,17.0315985 L10.1303155,18.295539 C10.1303155,18.8531599 10.0679012,19.5966543 9.33813443,20.0055762 C9.45816187,20.098513 9.63100137,20.2750929 9.70301783,20.3866171 Z M2.3909465,25.9907063 C2.89506173,25.9907063 3.25514403,25.9767658 3.51920439,25.8605948 C3.77366255,25.7537175 3.8648834,25.5585502 3.8648834,25.1775093 L3.8648834,22.5659851 L4.40260631,22.5659851 L4.40260631,21.8828996 L0.0144032922,21.8828996 L0.0144032922,22.5659851 L3.1303155,22.5659851 L3.1303155,25.1635688 C3.1303155,25.2611524 3.08710562,25.2936803 2.97187929,25.2936803 L2.91444428,25.2938346 L2.91444428,25.2938346 L2.72958328,25.2939253 C2.54518176,25.2932447 2.29912551,25.2896143 2.09807956,25.2750929 C2.2085048,25.4563197 2.35253772,25.7908922 2.3909465,25.9907063 Z M1.1090535,25.1914498 L1.1090535,24.8429368 L2.52537723,24.8429368 L2.52537723,22.9934944 L0.432098765,22.9934944 L0.432098765,25.1914498 L1.1090535,25.1914498 Z M1.8340192,24.2016729 L1.1090535,24.2016729 L1.1090535,23.6347584 L1.8340192,23.6347584 L1.8340192,24.2016729 Z M5.87654321,25.9907063 L5.87654321,24.3085502 C5.96776406,24.4526022 6.05418381,24.5966543 6.11659808,24.7128253 L6.53909465,24.197026 L6.53909465,24.2574349 L7.21124829,24.2574349 L7.21124829,22.3568773 L8.32510288,22.3568773 L8.32510288,24.2574349 L9.0308642,24.2574349 L9.0308642,21.7806691 L6.53909465,21.7806691 L6.53909465,24.1737918 C6.4526749,24.0715613 6.18381344,23.7648699 6.01097394,23.5836431 C6.20301783,23.2630112 6.36625514,22.919145 6.48148148,22.5659851 L6.11659808,22.3243494 L5.99657064,22.3475836 L5.74211248,22.3475836 L6.03497942,22.1802974 C5.95816187,22.0083643 5.78532236,21.7667286 5.61728395,21.5901487 L5.06995885,21.8736059 C5.18038409,22.0130112 5.30041152,22.1942379 5.38683128,22.3475836 L4.73868313,22.3475836 L4.73868313,22.9516729 L5.66049383,22.9516729 C5.41083676,23.4395911 5.02674897,23.8949814 4.6090535,24.1505576 C4.69067215,24.2899628 4.82990398,24.6710037 4.86831276,24.866171 C4.98353909,24.7825279 5.09876543,24.6895911 5.21399177,24.5827138 L5.21399177,25.9907063 L5.87654321,25.9907063 Z M6.53909465,26 C7.07201646,25.7258364 7.43209877,25.3587361 7.67215364,24.9591078 L7.67215364,25.3726766 C7.67215364,25.8141264 7.84499314,25.9395911 8.27229081,25.9395911 L8.54595336,25.9395911 C9.07407407,25.9395911 9.16529492,25.7026022 9.218107,24.982342 C9.05967078,24.9451673 8.8388203,24.8568773 8.68518519,24.7407063 C8.67558299,25.3169145 8.64677641,25.4563197 8.55075446,25.4563197 L8.41632373,25.4563197 C8.34430727,25.4563197 8.31069959,25.4144981 8.31069959,25.2936803 L8.31069959,24.2806691 L7.96982167,24.2806691 C8.07544582,23.9135688 8.1090535,23.5557621 8.1090535,23.2444238 L8.1090535,22.5845725 L7.44170096,22.5845725 L7.44170096,23.2304833 C7.44170096,23.936803 7.32167353,24.8847584 6.0877915,25.5074349 C6.22222222,25.6050186 6.45747599,25.8652416 6.53909465,26 Z M10.7496571,25.9907063 L10.7496571,24.489777 C10.8840878,24.6152416 11.0233196,24.7592937 11.0953361,24.8615242 C11.2537723,24.7918216 11.4122085,24.7128253 11.5754458,24.6198885 L11.5754458,24.9126394 C11.5754458,25.679368 11.7578875,25.9163569 12.4108368,25.9163569 L13.0349794,25.9163569 C13.654321,25.9163569 13.8319616,25.5539033 13.9039781,24.6291822 C13.702332,24.5827138 13.3902606,24.4386617 13.21262,24.3085502 C13.1790123,25.0613383 13.1454047,25.2425651 12.9581619,25.2425651 L12.5260631,25.2425651 C12.372428,25.2425651 12.3401836,25.2131924 12.3349149,25.0075841 L12.3340192,24.1226766 C12.8861454,23.7091078 13.4286694,23.1933086 13.8799726,22.5938662 L13.21262,22.1431227 C12.962963,22.5195167 12.6604938,22.8633829 12.3340192,23.1700743 L12.3340192,21.6412639 L11.5754458,21.6412639 L11.5754458,23.7834572 C11.2969822,23.9786245 11.0185185,24.1412639 10.7496571,24.2667286 L10.7496571,22.6635688 C10.9272977,22.3754647 11.0809328,22.0687732 11.2105624,21.7760223 L10.5,21.552974 C10.2407407,22.1988848 9.78463649,22.8401487 9.31412894,23.2351301 C9.44855967,23.3977695 9.67421125,23.7648699 9.7558299,23.9321561 C9.84224966,23.8531599 9.92386831,23.7648699 10.0102881,23.6719331 L10.0102881,25.9907063 L10.7496571,25.9907063 Z M18.5466392,25.6933086 L18.5466392,25.010223 L16.6982167,25.010223 L16.6982167,22.7472119 L18.2585734,22.7472119 L18.2585734,22.0408922 L14.3888889,22.0408922 L14.3888889,22.7472119 L15.8964335,22.7472119 L15.8964335,25.010223 L14.1152263,25.010223 L14.1152263,25.6933086 L18.5466392,25.6933086 Z M19.9725652,25.9907063 L19.9725652,22.7518587 C20.1454047,22.4405204 20.2942387,22.1198885 20.4142661,21.8085502 L19.7373114,21.5994424 C19.5068587,22.2407063 19.1083676,22.8819703 18.6906722,23.2862454 C18.8106996,23.4581784 19.0027435,23.848513 19.0651578,24.0157993 C19.1323731,23.9460967 19.1995885,23.8763941 19.2668038,23.7973978 L19.2668038,25.9907063 L19.9725652,25.9907063 Z M22.0178326,25.9953532 L22.0178326,25.0148699 L23.2517147,25.0148699 L23.2517147,24.3875465 L22.0178326,24.3875465 L22.0178326,23.9693309 L23.1893004,23.9693309 L23.1893004,23.355948 L22.0178326,23.355948 L22.0178326,22.9702602 L23.31893,22.9702602 L23.31893,22.3289963 L21.5281207,22.3289963 C21.6097394,22.1524164 21.6817558,21.9711896 21.7441701,21.7899628 L21.0720165,21.6180297 C20.8607682,22.2825279 20.4862826,22.9516729 20.0685871,23.3605948 C20.2174211,23.4674721 20.4862826,23.7091078 20.5967078,23.8345725 C20.8079561,23.6022305 21.0144033,23.3048327 21.2064472,22.9702602 L21.297668,22.9702602 L21.297668,25.9953532 L22.0178326,25.9953532 Z M26.175583,25.9907063 L26.175583,25.7723048 L27.1406036,25.7723048 L27.1406036,25.972119 L27.8559671,25.972119 L27.8559671,23.7509294 L26.9389575,23.7509294 L26.9389575,23.0167286 L28,23.0167286 L28,22.3754647 L26.9389575,22.3754647 L26.9389575,21.5762082 L26.2187929,21.5762082 L26.2187929,23.7509294 L25.4986283,23.7509294 L25.4986283,25.9907063 L26.175583,25.9907063 Z M25.4986283,22.9795539 L25.4986283,22.3615242 L24.6248285,22.3615242 L24.9561043,22.2592937 C24.9032922,22.0780669 24.7832647,21.8039033 24.6584362,21.5994424 L24.058299,21.7620818 C24.1495199,21.9433086 24.2503429,22.1802974 24.303155,22.3615242 L23.5301783,22.3615242 L23.5301783,22.9795539 L25.4986283,22.9795539 Z M23.6454047,25.6003717 C24.1639232,25.4888476 24.8216735,25.3494424 25.4314129,25.2100372 L25.3641975,24.5873606 L25.042524,24.6524164 C25.1529492,24.2342007 25.2729767,23.6812268 25.3641975,23.1933086 L24.7208505,23.0957249 C24.6824417,23.616171 24.5864198,24.3085502 24.4711934,24.7639405 C24.1111111,24.8336431 23.7702332,24.894052 23.5013717,24.9358736 L23.6454047,25.6003717 Z M23.8374486,24.7035316 L24.4039781,24.5920074 C24.3751715,24.1830855 24.2983539,23.5929368 24.2071331,23.1189591 L23.6742112,23.2165428 C23.7510288,23.6858736 23.8278464,24.2992565 23.8374486,24.7035316 Z M27.1406036,25.1449814 L26.175583,25.1449814 L26.175583,24.3782528 L27.1406036,24.3782528 L27.1406036,25.1449814 Z" id="慧采购可视化工作站" fill="#FFFFFF" fill-rule="nonzero"></path>
                        <path d="M13.9116936,-2.66453526e-15 C15.290495,-2.66453526e-15 16.6692963,0.53125 17.6312508,1.484375 L17.6312508,1.484375 L16.4288077,2.9375 C15.6752768,2.328125 14.8896806,1.984375 13.9116936,1.984375 C12.8695763,1.984375 12.1962082,2.4375 12.1962082,3.203125 C12.1962082,4.03125 13.0459346,4.328125 14.0559868,4.71875 L14.0559868,4.71875 L15.6111465,5.359375 C17.0540781,5.9375 18,6.828125 18,8.5 C18,10.390625 16.38071,12 13.6391398,12 C12.051915,12 10.4646902,11.390625 9.31034483,10.3125 L9.31034483,10.3125 L10.6731136,8.71875 C11.5228401,9.484375 12.6451202,10 13.6872376,10 C14.9217458,10 15.5790813,9.484375 15.5790813,8.671875 C15.5790813,7.8125 14.8576155,7.546875 13.7994656,7.109375 L13.7994656,7.109375 L12.2122407,6.453125 C11.0097977,5.96875 9.80735463,5.03125 9.80735463,3.34375 C9.80735463,1.453125 11.5068075,-2.66453526e-15 13.9116936,-2.66453526e-15 Z M3.9617002,-2.66453526e-15 C6.63544025,-2.66453526e-15 8.68965517,0.924324324 8.68965517,3.76216216 C8.68965517,6.42440154 6.73576207,7.66347932 4.2477902,7.7321105 L4.02691337,7.73513514 L2.41288736,7.73513514 L2.41288736,12 L-1.50990331e-14,12 L-1.50990331e-14,-2.66453526e-15 L3.9617002,-2.66453526e-15 Z M3.78236398,1.8972973 L2.41288736,1.8972973 L2.41288736,5.83783784 L3.86388044,5.83783784 C5.52681633,5.83783784 6.32567769,5.14054054 6.32567769,3.76216216 C6.32567769,2.36756757 5.44529986,1.8972973 3.78236398,1.8972973 Z" id="形状结合" fill="#FFFFFF" fill-rule="nonzero"></path>
                        <rect id="dot" fill="#FFB52F" x="20" y="8" width="4" height="4"></rect>
                    </g>
                </g>
            </g>
        </g>
    </g>
</svg>