<?xml version="1.0" encoding="UTF-8"?>
<svg width="732px" height="127px" viewBox="0 0 732 127" version="1.1" xmlns="http://www.w3.org/2000/svg" xmlns:xlink="http://www.w3.org/1999/xlink">
    <title>logo-pstudio</title>
    <g id="页面-1" stroke="none" stroke-width="1" fill="none" fill-rule="evenodd">
        <g id="桌面端-HD" transform="translate(-493.000000, -480.000000)">
            <g id="编组-3" transform="translate(40.000000, 40.000000)">
                <g id="logo-pstudio" transform="translate(453.000000, 440.000000)">
                    <g id="logo-ps" transform="translate(292.801626, 0.000000)">
                        <g id="编组-2">
                            <rect id="矩形" fill="#FFB52F" x="418.326029" y="39.412824" width="17.020258" height="17.0433834" rx="3.19563438"></rect>
                            <text id="Prana-Studio" font-family="NotoSansHans-Bold, Noto Sans S Chinese" font-size="63.9126876" font-weight="bold" fill="#FFFFFF">
                                <tspan x="0.530611168" y="56">Prana Studio</tspan>
                            </text>
                        </g>
                        <text id="慧采购可视化工作站" font-family="NotoSansHans-Bold, Noto Sans S Chinese" font-size="42.6084584" font-weight="bold" letter-spacing="5.99181446" fill="#FFFFFF">
                            <tspan x="0.531883063" y="121.389881">慧采购可视化工作站</tspan>
                        </text>
                    </g>
                    <path d="M75.8796433,69.4362157 L76.6691204,79.7912173 L73.9351016,79.7912173 L74.7252776,69.4362157 L75.8796433,69.4362157 Z M78.4295506,69.1137818 L81.0139201,79.1748574 L78.3206331,79.6482999 L77.2925557,69.3130789 L78.4295506,69.1137818 Z M72.1745716,69.1133643 L73.3116663,69.3126615 L72.2844874,79.6474848 L69.5910008,79.1748375 L72.1745716,69.1133643 Z M69.7197949,68.3549021 L70.8040781,68.7479299 L67.989694,78.7478745 L65.4199,77.8162971 L69.7197949,68.3549021 Z M80.8842574,68.354912 L85.1850508,77.8162077 L82.6143583,78.7478845 L79.7999742,68.7479399 L80.8842574,68.354912 Z M67.4336856,67.1832139 L68.4332108,67.7578457 L63.9170782,77.1190454 L61.5488465,75.757861 L67.4336856,67.1832139 Z M83.1704266,67.1831741 L89.0543672,75.757026 L86.6861355,77.1190057 L82.1709014,67.7583029 L83.1704266,67.1831741 Z M85.2170372,65.6340341 L92.5079203,73.0611074 L90.4127311,74.8117413 L84.3325193,66.372676 L85.2170372,65.6340341 Z M65.3870151,65.6340242 L66.271533,66.372666 L60.1913212,74.8108368 L58.0971303,73.0610975 L65.3870151,65.6340242 Z M63.8529656,63.670525 L64.5960205,64.5527006 L57.1243403,71.8226224 L55.3635907,69.7331337 L63.8529656,63.670525 Z" id="形状结合" fill="#004CE0"></path>
                    <rect id="bar" fill="#FFB52F" x="268.069064" y="0" width="12.7651935" height="126.834481"></rect>
                    <g id="logo-moreyou02" transform="translate(0.000000, 29.594712)">
                        <path d="M164.932213,9.05753257 L173.682651,31.7528532 L181.613262,9.05753257 L188.491537,9.05753257 L174.694256,46.7442714 C174.20228,48.0632108 172.825787,51.0962049 171.601338,52.3875112 C169.448346,54.6602936 166.48611,54.9211194 164.454115,54.9211194 L164.454115,54.9211194 L160.872716,54.9211194 L160.872716,49.2495506 L163.407587,49.2495694 C164.517326,49.248621 165.558963,49.21983 166.499887,48.5995736 C167.042078,48.2422303 168.136744,46.799339 169.013475,44.3397838 L169.013475,44.3397838 L169.098338,44.1012156 C169.505916,42.9523045 170.396158,40.4079149 170.396158,40.4079149 L170.396158,40.4079149 L157.876636,9.05753257 L164.932213,9.05753257 Z M206.683933,8.92625412 C208.976192,8.93055893 213.873586,9.17677289 218.380933,13.4946122 C222.702591,17.6335315 223.089842,22.7808644 223.089842,25.1509595 L223.089264,25.3060605 C223.07101,27.74187 222.597215,32.8010548 218.383628,36.9010409 C214.051687,41.1169952 208.977889,41.5038603 206.683933,41.5038603 C204.095071,41.5038603 198.815617,40.7485192 195.015385,36.8993511 C191.269761,33.1053501 190.342016,28.5571014 190.342016,25.1509595 C190.342016,21.2690888 191.395151,17.0868311 195.016284,13.4964014 C199.342135,9.20868031 204.993465,8.92280572 206.683933,8.92625412 Z M234.637443,8.93745729 L234.637443,26.4234194 C234.665995,30.3482309 235.406155,32.0860422 235.870377,32.9146412 C236.325215,33.7273361 237.590195,35.6041087 240.856023,35.6041087 C243.073008,35.6041087 244.812593,34.7419125 246.174511,32.9693112 C247.540722,31.1902489 248.23406,28.7684657 248.23406,25.7694664 L248.23406,25.7694664 L248.23406,8.93745729 L254.689643,8.93745729 L254.69144,40.6417039 L248.257421,40.6417039 L248.257421,36.8498897 C247.511271,37.9254978 246.520331,38.8785456 245.294286,39.6973039 C243.514069,40.8883154 241.50803,41.4922702 239.332576,41.4922702 C237.417185,41.4922702 233.550564,41.2753793 230.844998,37.6548314 C228.461092,34.465978 228.181061,30.2841179 228.181061,28.5153932 L228.181061,8.93745729 L234.637443,8.93745729 Z M111.931464,13.6642981 C114.630486,8.87018504 120.588414,8.92438964 121.010114,8.93382837 L121.033711,8.93444547 C121.632203,8.93737516 122.885554,8.9424195 123.266428,8.94393942 L123.378582,8.94438548 L123.378582,15.2887933 L123.378582,15.2887933 L122.897866,15.2879541 C122.8488,15.2878736 122.796733,15.2877896 122.742025,15.287703 L122.188171,15.2868861 C122.120886,15.2867943 122.052048,15.2867031 121.98202,15.2866138 L121.329403,15.2858859 C121.255493,15.2858166 121.181478,15.2857524 121.107722,15.2856941 L119.721114,15.2857163 C119.668729,15.285794 119.619139,15.2858852 119.572706,15.2859908 L119.334887,15.2868066 C119.237817,15.2873099 119.175678,15.2879626 119.158254,15.2887933 L119.15486,15.2887933 C118.048114,15.347837 117.06576,15.6025993 116.228863,16.0498002 C115.265677,16.5680721 111.931464,18.7436413 111.931464,24.0967323 L111.931464,24.0967323 L111.931464,41.4858788 L105.454317,41.4858788 L105.475981,9.78153281 L111.931464,9.78153281 Z M33.9455396,8.93226861 C38.847326,8.93226861 41.5433085,11.5804851 42.3992742,12.7960485 C44.8687363,16.3046719 45.0987509,19.3893541 45.0987509,21.9078535 L45.0987509,21.9078535 L45.0987509,41.4857893 L38.6743159,41.4857893 L38.6743159,21.5579653 C38.6743159,17.5900141 36.1556363,14.9509424 32.4341721,14.9509424 C27.0983131,14.9509424 25.6319701,19.3372684 25.6319701,22.8743203 L25.6319701,22.8743203 L25.6319701,41.4857893 L19.2239077,41.4857893 L19.2239077,21.4417666 C19.2239077,17.4466792 16.5946135,14.9509424 13.1004684,14.9509424 C7.19745967,14.9509424 6.42525361,21.0775647 6.42525361,22.7580222 L6.42525361,41.4857893 L1.99665433e-05,41.4857893 L1.99665433e-05,9.78203975 L6.45560275,9.78203975 L6.45560275,13.606159 C7.1758958,12.5210085 9.77673774,8.93226861 15.1747926,8.93226861 C20.9540087,8.93226861 23.2740212,12.7379988 24.1654275,14.6607937 C25.1373988,12.930338 28.1013324,8.93226861 33.9455396,8.93226861 Z M141.614306,8.91682184 C158.498414,8.91682184 156.469115,27.6911082 156.469115,27.6911082 L156.469115,27.6911082 L132.477416,27.6911082 C132.615784,28.5188125 133.931879,35.588145 141.901325,35.588145 C148.461532,35.588145 150.616222,30.6917973 150.616222,30.6917973 L150.616222,30.6917973 L155.423666,34.6493114 L155.226497,34.9170952 C153.581154,37.1520062 148.955205,41.4768036 141.901325,41.4768036 C126.896967,41.4768036 125.571388,28.7594601 125.571388,25.6881969 C125.571388,18.7982815 130.167087,8.91682184 141.614306,8.91682184 Z M206.652785,14.6672348 C205.010038,14.6672348 201.968135,15.0339216 199.594612,17.8073822 C197.473566,20.287215 197.100092,23.7825188 197.100092,25.1832645 C197.100092,26.585203 197.266114,29.7886682 199.597208,32.5939368 C201.70867,35.1352982 204.520558,35.7612204 206.652785,35.7612204 C208.388077,35.7612204 211.387651,35.4103382 213.710159,32.5939368 C216.015397,29.797316 216.206476,26.5813264 216.206476,25.1832645 C216.206476,23.786793 216.011902,20.4624573 213.711857,17.8073822 C211.247586,14.9633476 208.178129,14.6672348 206.652785,14.6672348 Z M141.460364,14.433923 C134.502423,14.433923 132.49299,20.5906635 132.49299,22.3900034 L132.49299,22.3900034 L150.173464,22.3900034 C150.173464,20.0052965 147.838876,14.433923 141.460364,14.433923 Z" id="形状结合" fill="#FFFFFF"></path>
                        <path d="M87.2111558,34.0753755 L95.7006305,40.1388787 L93.9389824,42.2282681 L86.4681009,34.957551 L87.2111558,34.0753755 Z M63.8529656,34.0758128 L64.5960205,34.9579884 L57.1243403,42.2279102 L55.3635907,40.1384215 L63.8529656,34.0758128 Z M62.4603791,31.9195968 L63.0379114,32.9163807 L54.4117656,38.7849604 L53.0424601,36.4231155 L62.4603791,31.9195968 Z M88.6047406,31.9191297 L98.0225598,36.4235429 L96.6523557,38.7849902 L88.0271085,32.9164105 L88.6047406,31.9191297 Z M89.6007317,29.5554757 L99.6611741,32.3628317 L98.7241442,34.9252659 L89.2057935,30.6372466 L89.6007317,29.5554757 Z M61.4634196,29.5550582 L61.8592563,30.6368291 L52.3400072,34.924749 L51.4038758,32.3624142 L61.4634196,29.5550582 Z M60.8953216,27.0547689 L61.0952865,28.1887248 L50.9733472,30.7653732 L50.4987424,28.0791859 L60.8953216,27.0547689 Z M90.1689396,27.0547391 L100.566218,28.0791561 L100.089916,30.7653434 L89.9688748,28.188695 L90.1689396,27.0547391 Z M50.3541647,23.7054042 L60.7714092,24.4940443 L60.7714092,25.6452959 L50.3541647,26.432942 L50.3541647,23.7054042 Z M100.710865,23.7050265 L100.710865,26.4325642 L90.2936207,25.6448187 L90.2936207,24.4935672 L100.710865,23.7050265 Z M50.9742457,19.3726847 L61.0952865,21.9501283 L60.8944231,23.0841836 L50.4987424,22.058872 L50.9742457,19.3726847 Z M100.089886,19.3726549 L100.566287,22.0588422 L90.1698081,23.0841538 L89.9688449,21.9500985 L100.089886,19.3726549 Z M52.3399872,15.2136568 L61.8592364,19.5015767 L61.4633997,20.5833476 L51.4038558,17.7768862 L52.3399872,15.2136568 Z M98.7241542,15.2132294 L99.6603854,17.7764588 L89.6007417,20.5838148 L89.2050048,19.5020439 L98.7241542,15.2132294 Z M54.4108771,11.353346 L63.0379213,17.2220251 L62.4593907,18.219306 L53.0415716,13.7157873 L54.4108771,11.353346 Z M96.6523857,11.3538629 L98.0225897,13.7158072 L88.6038721,18.2193259 L88.0271385,17.2224426 L96.6523857,11.3538629 Z M57.1242804,7.910595 L64.5960605,15.181312 L63.8530055,16.0634876 L55.3636307,9.99998433 L57.1242804,7.910595 Z M93.9390123,7.91100254 L95.7006604,9.99959667 L87.2111857,16.0630005 L86.4681308,15.180825 L93.9390123,7.91100254 Z M60.397336,4.98900846 L66.4867324,13.4406976 L65.600717,14.1805323 L58.2987525,6.74212737 L60.397336,4.98900846 Z M90.6669152,4.98893888 L92.7654987,6.74166019 L85.4634343,14.1805621 L84.5765205,13.4407275 L90.6669152,4.98893888 Z M64.1292327,2.67626718 L68.6519543,12.0531722 L67.6507319,12.6287979 L61.7571075,4.04083125 L64.1292327,2.67626718 Z M86.9348488,2.67626718 L89.3070738,4.04043365 L83.4134493,12.6287979 L82.4123269,12.0531722 L86.9348488,2.67626718 Z M68.2077086,1.04505251 L71.0266851,11.0614975 L69.9406049,11.4551217 L65.6336219,1.9777233 L68.2077086,1.04505251 Z M82.8557139,1.04553957 L85.4305993,1.97821036 L81.1244149,11.4556088 L80.0374363,11.0619845 L82.8557139,1.04553957 Z M72.5094405,0.143563511 L73.5375178,10.4953843 L72.3995247,10.6958742 L69.811661,0.617006013 L72.5094405,0.143563511 Z M78.5555494,0.144428292 L81.2534288,0.617870794 L78.6646666,10.6954468 L77.5258748,10.4953545 L78.5555494,0.144428292 Z M76.9014211,9.94000628e-06 L76.1106462,10.3721083 L74.9543837,10.3721083 L74.1628101,9.94000628e-06 L76.9014211,9.94000628e-06 Z" id="形状结合" fill="#FFB52F"></path>
                        <path d="M96.7031906,72.5404863 C96.8301778,72.6946558 97.0178633,72.7841159 97.2175287,72.7841159 C97.3706721,72.7841159 97.5176259,72.7316327 97.6370258,72.6352146 L98.0727956,72.2779708 C98.2093668,72.1668415 98.2958219,72.0084972 98.3131928,71.8337519 C98.3304638,71.658112 98.2794493,71.4859511 98.1679362,71.3490772 L94.7602462,67.1890851 C94.6339578,67.035015 94.446472,66.9463502 94.2458082,66.9463502 C94.0944618,66.9463502 93.9458109,66.9988334 93.8273095,67.0944563 L93.3923384,67.4517001 C93.1088134,67.6815131 93.065486,68.0982975 93.2955006,68.3805937 L96.7031906,72.5404863 Z" id="Fill-99" fill="#FFFFFF"></path>
                        <path d="M96.3166383,78.1519281 C96.4429267,78.3068928 96.6306122,78.394663 96.8310763,78.394663 C96.9824227,78.394663 97.1311734,78.3421798 97.2487764,78.2457617 L97.6845462,77.8893131 C97.9681709,77.6586055 98.0113985,77.2428151 97.7804854,76.9605189 L94.3737938,72.8005269 C94.2467067,72.6463574 94.0590212,72.5568973 93.8584573,72.5568973 C93.7063122,72.5568973 93.5574617,72.6102751 93.4399586,72.704904 L93.0040889,73.0631418 C92.8675178,73.1741717 92.7819611,73.3317208 92.7637916,73.5072613 C92.7448234,73.6830006 92.797535,73.8550621 92.9090482,73.9912402 L96.3166383,78.1519281 Z" id="Fill-101" fill="#FFFFFF"></path>
                        <path d="M50.0835581,78.0193284 L42.4943749,78.0193284 L42.4943749,73.8749421 C42.4943749,73.672663 42.6492154,73.4143222 42.9553025,73.4143222 L49.6183377,73.4143222 C49.868219,73.4143222 50.0835581,73.6106374 50.0835581,73.8749421 L50.0835581,78.0193284 Z M50.0835581,79.7041594 L50.0835581,84.4133368 C50.0835581,84.6319176 49.9218291,84.8704777 49.6252261,84.8704777 L42.954404,84.8704777 C42.7729081,84.8704777 42.4943749,84.7352937 42.4943749,84.4194003 L42.4943749,79.7041594 L50.0835581,79.7041594 Z M51.7427779,66.9755837 L40.8722929,66.9755837 C40.714058,66.9755837 40.2177896,67.1116624 40.2177896,67.62735 L40.2177896,68.0156066 C40.2177896,68.3151984 40.4209492,68.6818852 40.8722929,68.6818852 L45.2318878,68.6818852 L44.306738,71.7312804 L42.4633269,71.7312804 C41.2726221,71.7312804 40.6674361,72.7557968 40.6674361,73.4005056 L40.6674361,84.8170999 C40.6674361,85.928492 41.6513874,86.5776738 42.4528444,86.5776738 L50.2054539,86.5776738 C51.4003517,86.5776738 51.9338577,85.4593237 51.9338577,84.8455283 L51.9338577,73.5116349 C51.9338577,72.7643452 51.3588213,71.7312804 50.1863858,71.7312804 L46.2072534,71.7312804 L47.1531684,68.6818852 L51.7324951,68.6818852 C51.919981,68.6818852 52.3843029,68.5312941 52.3843029,68.0156066 L52.3843029,67.6411666 C52.3843029,67.3044986 52.1413101,66.9755837 51.7427779,66.9755837 L51.7427779,66.9755837 Z" id="Fill-103" fill="#FFFFFF"></path>
                        <path d="M103.73974,78.8088034 C103.664466,78.4825724 103.377447,78.2544493 103.041111,78.2544493 C102.9875,78.2544493 102.932992,78.2612085 102.879382,78.2742299 L101.168249,78.6762038 L101.168249,66.6656941 C101.168249,66.2722687 100.846688,65.951107 100.450651,65.951107 L100.036345,65.951107 C99.6412075,65.951107 99.3187478,66.2722687 99.3187478,66.6656941 L99.3187478,79.1127688 L91.4270714,80.9731404 C91.0414176,81.0618053 90.8002218,81.4465829 90.8891727,81.8297702 L90.9835147,82.2318434 C91.0577902,82.5580744 91.3458076,82.786297 91.6812455,82.786297 C91.7366527,82.786297 91.7902628,82.7801342 91.8437732,82.7672122 L99.3187478,81.0050478 L99.3187478,86.2591364 C99.3187478,86.6534564 99.6412075,86.9737234 100.036345,86.9737234 L100.450651,86.9737234 C100.846688,86.9737234 101.168249,86.6534564 101.168249,86.2591364 L101.168249,80.5693774 L103.296183,80.067407 C103.48297,80.0243668 103.641205,79.9116471 103.743134,79.7507184 C103.844365,79.5879011 103.876311,79.3967548 103.833183,79.2108767 L103.73974,78.8088034 Z" id="Fill-105" fill="#FFFFFF"></path>
                        <path d="M37.4318079,66.9420462 L33.885051,66.9420462 C32.9615983,66.9420462 32.1211067,67.6557386 32.1211067,68.6982465 L32.1211067,83.4646229 L32.1211067,86.2720783 L32.1211067,86.3029917 C32.1211067,86.3063713 32.1219054,86.3107449 32.1219054,86.3107449 C32.1237023,86.3513001 32.1271965,86.3873823 32.1340849,86.4226694 C32.1357821,86.433007 32.1366806,86.4425494 32.1392762,86.4527876 C32.1635356,86.5767395 32.2197414,86.6973117 32.3260633,86.7946244 L32.3295574,86.7981034 C32.3407387,86.8083416 32.3537169,86.8187786 32.3657967,86.8282216 C32.4885909,86.9340827 32.6477243,87.0003825 32.8232302,87.0003825 L33.224358,87.0003825 C33.5097798,87.0003825 33.7544698,86.830806 33.8634871,86.5871765 C33.8650844,86.5862819 33.8659829,86.5844927 33.8668814,86.5828029 C33.9049177,86.4975176 33.9265814,86.4019942 33.9265814,86.3029917 L33.9265814,83.4646229 C33.9265814,83.4646229 33.9256829,83.4603487 33.9256829,83.4576649 L33.9256829,69.0572795 C33.9256829,68.8919772 34.0614554,68.6045122 34.3762279,68.6045122 L36.9347408,68.6045122 C37.1032584,68.6045122 37.3894788,68.7353227 37.3894788,69.0522101 L37.3894788,73.6303782 C37.3894788,73.8672486 37.1785323,74.0686331 36.9320453,74.0686331 L35.3635735,74.0669433 C35.0030776,74.0669433 34.7107674,74.3578873 34.7107674,74.7160257 L34.7107674,75.0853963 C34.7107674,75.4434354 35.0030776,75.7353734 35.3635735,75.7353734 L36.9355394,75.7310992 C37.225254,75.7310992 37.3894788,75.9721443 37.3894788,76.1873454 L37.3894788,81.76518 C37.3894788,81.9648747 37.1992975,82.1835549 36.9691831,82.1835549 L35.3635735,82.1835549 C35.0030776,82.1835549 34.7107674,82.4753935 34.7107674,82.8335319 L34.7107674,83.2020079 C34.7107674,83.5602457 35.0030776,83.8519849 35.3635735,83.8519849 L37.4214253,83.8519849 C38.5075054,83.8519849 39.1939552,82.9351187 39.1939552,82.1225232 L39.1939552,76.2872425 C39.1939552,75.8851693 39.1464348,75.5941259 39.0427086,75.3824037 L39.0478001,75.3824037 L38.9907956,75.2894647 C38.903442,75.1482172 38.73752,75.0104487 38.6501664,74.9450435 C38.7807475,74.8254652 38.837752,74.7599605 38.8620114,74.7228843 L38.86281,74.7246735 C39.092026,74.4827338 39.1939552,74.1098841 39.1939552,73.5176585 L39.1939552,68.6716073 C39.1939552,67.5980866 38.221285,66.9420462 37.4318079,66.9420462" id="Fill-107" fill="#FFFFFF"></path>
                        <path d="M60.5008725,70.7868108 C60.6228681,70.8962503 60.7811029,70.9555921 60.9444293,70.9555921 C61.1321148,70.9555921 61.3119135,70.875575 61.4373034,70.7360174 L61.8125746,70.3167479 C62.0563661,70.0464791 62.0347024,69.6281043 61.7624585,69.3844747 L58.525183,66.469369 C58.402289,66.3601284 58.2458511,66.3006871 58.0807278,66.3006871 C57.8939408,66.3006871 57.7149407,66.3798096 57.5887522,66.5192679 L57.213481,66.9394319 C56.9695897,67.2098001 56.9921518,67.628175 57.263597,67.8710093 L60.5008725,70.7868108 Z" id="Fill-109" fill="#FFFFFF"></path>
                        <path d="M64.8673758,68.6828096 L75.5579623,68.6828096 C75.9539987,68.6828096 76.2765582,68.3617474 76.2765582,67.9674274 L76.2765582,67.5559111 C76.2765582,67.1606965 75.9539987,66.8404295 75.5579623,66.8404295 L64.8777584,66.8404295 C64.5249496,66.8404295 64.1981971,67.1485697 64.1981971,67.4947801 L64.1981971,68.0310434 C64.1981971,68.3901759 64.5249496,68.6828096 64.8673758,68.6828096" id="Fill-111" fill="#FFFFFF"></path>
                        <path d="M77.2172919,81.8254562 L75.0201734,81.8254562 C74.6293283,81.8254562 74.3025759,81.6867931 74.0768541,81.4354104 C73.8702004,81.2055974 73.7033799,80.9327442 73.7033799,80.5220232 L73.7033799,74.1237405 L76.9026191,74.1237405 C77.2985557,74.1237405 77.6193182,73.8043681 77.6193182,73.410048 L77.6193182,72.9589706 C77.6193182,72.5646505 77.336592,72.2822549 76.9406554,72.2822549 L63.5332214,72.2822549 C63.17003,72.2822549 62.8544587,72.5775725 62.8544587,72.9477383 L62.8544587,73.4479195 C62.8544587,73.8422395 63.1691315,74.1237405 63.5332214,74.1237405 L66.8966854,74.1237405 C66.8966854,74.1237405 66.9001796,75.7146385 66.8966854,76.244242 C66.8966854,76.250206 67.0082984,78.746738 65.5660152,80.3524467 C64.8570032,81.1400928 63.7856983,81.8684964 63.7718216,81.878834 C63.6256665,81.9932435 63.5332214,82.1586452 63.5116575,82.3428335 C63.4890953,82.5279164 63.5419068,82.7096198 63.6569141,82.8559367 L63.9049984,83.1684505 C64.0372768,83.3363372 64.2379405,83.4327552 64.4523812,83.4327552 C64.6114147,83.4327552 64.7618626,83.380272 64.8837584,83.2846491 C64.8837584,83.2846491 66.6623781,81.9691887 67.2131552,81.2081818 C67.6359467,80.62361 68.1478889,79.8986854 68.4478862,78.7304364 C68.7860196,77.4158706 68.7461864,75.6846197 68.7453877,75.6682187 L68.7453877,74.1237405 L71.8546777,74.1237405 L71.8546777,81.0015291 C71.8546777,81.7453397 72.1745417,82.3110255 72.5499127,82.7431176 C73.1836508,83.4750003 73.9817135,83.5755931 74.473789,83.5962683 L77.2172919,83.5962683 C77.598553,83.5962683 77.9081343,83.2881281 77.9081343,82.9093145 L77.9081343,82.5133046 C77.9081343,82.1336958 77.598553,81.8254562 77.2172919,81.8254562" id="Fill-113" fill="#FFFFFF"></path>
                        <path d="M77.0270806,84.86017 L67.658479,84.86017 L67.658479,84.8610646 C67.658479,84.8610646 64.9487195,85.0382949 63.6387146,84.3350394 C61.1778382,83.0144102 61.5176687,80.8310878 61.5176687,80.825919 L61.5176687,73.5874076 C61.5176687,73.5538104 61.5445237,73.1036275 61.1000685,72.6652732 C60.7109205,72.2822847 60.2172478,72.2822847 60.2172478,72.2822847 L57.0845969,72.2822847 C56.7189097,72.2822847 56.421508,72.5783975 56.421508,72.9425 L56.421508,73.317934 C56.421508,73.6821358 56.7189097,73.9782486 57.0845969,73.9782486 L59.3664733,73.9782486 C59.442446,73.9790438 59.6690663,74.0057824 59.6690663,74.294142 L59.6612794,79.9916543 C59.6612794,79.9968231 59.7530256,82.068221 58.6877107,83.5214499 C58.1048873,84.3177438 56.5459994,85.4222773 56.537314,85.4292353 C56.3902604,85.5437442 56.2977155,85.7098417 56.2761516,85.89403 C56.2536892,86.0792123 56.3064009,86.2608162 56.421508,86.4071331 L56.6686938,86.7188517 C56.8018707,86.8875336 57.0024346,86.9830571 57.2168753,86.9830571 C57.3760086,86.9830571 57.5255581,86.9314685 57.6483523,86.8341558 C57.6483523,86.8341558 59.7260708,85.4172079 60.5526857,84.0982685 C60.6789741,84.2945836 61.5738745,85.2716862 61.9699109,85.5720732 C63.6041725,86.8126854 65.4147387,86.7102039 65.8323389,86.7102039 C65.9966636,86.7102039 77.0270806,86.7024507 77.0270806,86.7024507 C77.423117,86.7024507 77.7455766,86.3822831 77.7455766,85.9879631 L77.7455766,85.5755522 C77.7455766,85.1812322 77.423117,84.86017 77.0270806,84.86017" id="Fill-115" fill="#FFFFFF"></path>
                        <path d="M96.7066048,72.5404863 C96.835389,72.7316327 97.2374154,72.9382854 97.6387429,72.6352146 L98.0745127,72.278766 C98.4203333,71.9938854 98.3407666,71.5504617 98.170452,71.3490772 L94.7628619,67.1890851 C94.5519153,66.9729894 94.1610702,66.8430735 93.8290266,67.0944563 L93.3940555,67.4517001 C93.1113292,67.6815131 93.0682015,68.0982975 93.2990147,68.3814883 L96.7066048,72.5404863 Z" id="Fill-117" fill="#FFFFFF"></path>
                        <path d="M96.3192639,78.1519281 C96.4455523,78.3068928 96.6331379,78.394663 96.8329032,78.394663 C96.9859468,78.394663 97.1336992,78.3430744 97.2523005,78.2466563 L97.6870719,77.8893131 C97.9707965,77.6595001 98.0131256,77.2428151 97.7822125,76.9605189 L94.3754211,72.8005269 C94.2493323,72.6463574 93.818654,72.4088906 93.4416857,72.704904 L93.007613,73.0631418 C92.8701434,73.1741717 92.583923,73.5882724 92.9107753,73.9912402 L96.3192639,78.1519281 Z" id="Fill-119" fill="#FFFFFF"></path>
                        <path d="M91.3250025,79.060216 L91.7469953,78.6873664 C92.1205694,78.3258484 91.9267941,77.8884881 91.8100896,77.7558884 L88.0617704,73.4978879 L90.8502979,73.4978879 C91.2463343,73.4978879 91.5679953,73.1768257 91.5679953,72.7825056 L91.5679953,72.3699954 C91.5679953,71.9757747 91.2463343,71.6564023 90.8502979,71.6564023 L87.6354847,71.6564023 L87.6354847,68.4254032 C88.4871577,68.2308773 89.7305741,67.7255274 90.2442135,67.4843828 C90.5433123,67.3613256 90.6755906,67.0126301 90.5494021,66.6906733 L90.3159932,66.1431778 C90.1974918,65.8573032 89.8014554,65.7092965 89.4020247,65.8866262 C86.3955624,67.2149093 82.3342677,67.6472001 82.3342677,67.6472001 C82.1812241,67.667776 81.7601297,67.8778083 81.8379992,68.291909 L81.9340383,68.8902973 C81.9970327,69.2052961 82.2071806,69.3853097 82.5089749,69.3853097 C82.5323358,69.3853097 84.3731512,69.2166277 85.7860837,68.8773753 L85.7860837,71.6564023 L82.4657474,71.6564023 C82.0688125,71.6564023 81.7472513,71.9757747 81.7472513,72.3699954 L81.7472513,72.7825056 C81.7472513,73.1768257 82.0688125,73.4978879 82.4657474,73.4978879 L85.7056185,73.4978879 C84.4682918,77.3393027 81.505157,80.5564852 81.505157,80.5564852 C81.3614977,80.7320257 81.1894859,81.1642172 81.5751397,81.4750412 L82.0498443,81.7867598 C82.1864154,81.8702558 82.570372,82.0880413 82.9378563,81.6610187 C82.9378563,81.6610187 83.7843379,80.6528038 84.5253961,79.6327604 C85.2032603,78.6994932 85.7799939,77.74734 85.7860837,77.736903 L85.7860837,86.2462442 C85.7860837,86.6405642 86.1067464,86.9599367 86.5027827,86.9599367 L86.9169887,86.9599367 C87.3121266,86.9599367 87.6354847,86.6405642 87.6354847,86.2462442 L87.6354847,75.867983 L90.3885716,78.9981904 C90.5157585,79.1419229 90.8736587,79.389926 91.3250025,79.060216" id="Fill-121" fill="#FFFFFF"></path>
                        <path d="M103.742375,78.8088034 C103.667102,78.4825724 103.379084,78.2552445 103.043646,78.2552445 C102.989138,78.2552445 101.169886,78.6762038 101.169886,78.6762038 L101.169886,66.6656941 C101.169886,66.2722687 100.848325,65.951107 100.453187,65.951107 L100.038981,65.951107 C99.6429446,65.951107 99.3213834,66.2722687 99.3213834,66.6656941 L99.3213834,79.1127688 L91.4296072,80.9739356 C91.0440532,81.0618053 90.8027575,81.4465829 90.892607,81.8297702 L90.9852518,82.2318434 C91.0604258,82.5580744 91.4503724,82.8843054 91.8455103,82.7672122 L99.3213834,81.0050478 L99.3213834,86.260031 C99.3213834,86.6534564 99.6429446,86.9737234 100.038981,86.9737234 L100.453187,86.9737234 C100.848325,86.9737234 101.169886,86.6534564 101.169886,86.260031 L101.169886,80.5693774 L103.29792,80.067407 C103.635155,79.990869 103.922174,79.6619542 103.835719,79.2108767 L103.742375,78.8088034 Z" id="Fill-123" fill="#FFFFFF"></path>
                        <path d="M113.737737,78.0175789 C114.241892,77.8832894 114.340427,77.4046781 114.275536,77.1610486 L114.182192,76.7589753 C114.023957,76.1632708 113.465293,76.1744036 113.320935,76.2244018 L111.87965,76.565344 L111.87965,71.7338051 L113.537073,71.7338051 C113.902062,71.7338051 114.199463,71.4376923 114.199463,71.0743851 L114.203756,70.5019401 C114.203756,70.2642746 114.003192,69.8458997 113.534577,69.8519631 L111.87965,69.8519631 L111.87965,66.4073533 C111.87965,66.0148225 111.557091,65.6937603 111.161054,65.6937603 L110.746848,65.6937603 C110.350812,65.6937603 110.03005,66.0148225 110.03005,66.4073533 L110.03005,69.8519631 L107.676493,69.8519631 C107.312503,69.8519631 107.014203,70.1480759 107.014203,70.5121784 L107.017697,71.0735899 C107.017697,71.4367977 107.3142,71.7338051 107.679888,71.7346997 L110.03005,71.7338051 L110.03005,77.0034995 L107.238926,77.6655039 C106.874138,77.7550634 106.612975,78.1011744 106.701227,78.5221337 L106.794571,78.9242069 C106.937232,79.4605697 107.467244,79.5130529 107.65483,79.4596751 L110.03005,78.8966731 L110.03005,84.5536301 C110.03005,84.5536301 110.119999,85.1219003 109.496643,85.1675249 C109.495745,85.1675249 108.741808,85.2630483 107.634963,84.8799605 C107.5529,84.8515321 107.052239,84.7120738 106.868946,85.2182189 L106.701227,85.7735671 C106.595704,86.1317055 106.721094,86.4218543 107.035767,86.547496 C108.259317,87.0244175 109.871016,86.9521536 110.019767,86.9392316 C110.037837,86.938337 111.842513,86.8402292 111.87965,85.0228978 L111.87965,78.4584182 L113.737737,78.0175789 Z" id="Fill-125" fill="#FFFFFF"></path>
                        <path d="M121.598395,80.7992301 C120.49764,79.6258123 119.559412,78.4204872 118.606608,76.6927153 L124.870113,76.6927153 C124.065162,78.0873975 122.918683,79.5242255 121.598395,80.7992301 M128.004561,85.3689492 C127.976907,85.3586116 125.419193,84.3806143 122.912593,82.1069373 C125.251474,79.9442901 126.711927,77.4528275 127.042173,76.4146933 C127.119244,76.1537681 127.125234,75.8773365 127.125234,75.7981147 L127.123537,75.4709891 C127.123537,75.2515137 126.965302,74.8098793 126.44128,74.8098793 L122.158557,74.8107739 L122.158557,71.7347395 L126.749164,71.7347395 C127.126033,71.7347395 127.433019,71.4385273 127.433917,71.0744249 L127.430423,70.5131127 C127.430423,70.3356836 127.359542,70.1695861 127.22896,70.044839 C127.100076,69.9199925 126.928963,69.8519035 126.746469,69.8519035 L122.158557,69.8519035 L122.158557,66.6441641 C122.158557,66.2516332 121.826613,65.9304716 121.418497,65.9304716 L120.988817,65.9304716 C120.581499,65.9304716 120.249456,66.2516332 120.249456,66.6441641 L120.249456,69.8527981 L115.659047,69.8527981 C115.281181,69.8527981 114.975093,70.1481157 114.974195,70.5122181 L114.977689,71.0735303 C114.977689,71.3946919 115.240449,71.7347395 115.661643,71.7347395 L120.249456,71.7347395 L120.249456,74.8107739 L115.674522,74.8107739 C115.298452,74.8107739 114.990667,75.1068866 114.990667,75.4701939 L114.994062,76.0324006 C114.994062,76.2983952 115.202512,76.6935105 115.677117,76.6935105 L116.46919,76.6935105 C116.954177,77.6801555 118.124117,79.8143742 120.160405,82.1034583 C117.727282,84.1196892 114.355032,85.2605037 114.355032,85.2605037 C113.933139,85.4127846 113.89081,85.8277799 113.983355,86.0542132 L114.255599,86.5776539 C114.347345,86.8161147 114.545413,86.9193914 114.694963,86.9556724 C114.960418,87.020183 115.241347,86.8789355 115.241347,86.8789355 C116.374149,86.5355083 118.654229,85.6470706 121.197966,83.5662296 C121.228315,83.5412802 121.274937,83.5050986 121.33294,83.459474 C121.363189,83.4354191 121.391742,83.4129547 121.421891,83.3888999 C122.363513,84.2531835 124.181068,85.7804654 126.232031,86.7843067 L127.160675,87.1657047 C127.264401,87.2095401 127.365631,87.2319052 127.462369,87.2319052 C127.702767,87.2319052 127.913813,87.1036791 128.091914,86.8462329 L128.381529,86.3546996 C128.518999,86.0232998 128.492244,85.5910089 128.004561,85.3689492" id="Fill-127" fill="#FFFFFF"></path>
                    </g>
                </g>
            </g>
        </g>
    </g>
</svg>