<?xml version="1.0" encoding="UTF-8"?>
<svg width="160px" height="160px" viewBox="0 0 160 160" version="1.1" xmlns="http://www.w3.org/2000/svg"
     xmlns:xlink="http://www.w3.org/1999/xlink">
    <title>logo-abbr</title>
    <g transform="translate(-1117.000000, -245.000000)">
        <g id="logo-abbr" transform="translate(1117.000000, 245.000000)">
            <rect id="base" fill="#004CE0" x="0" y="0" width="160" height="160" rx="12"></rect>
            <g id="content" transform="translate(20.000000, 40.000000)">
                <path d="M23.7073171,1 C39.7073171,1 52,6.7 52,24.2 C52,41.1 39.6097561,48.7 24.097561,48.7 L24.097561,48.7 L14.4390244,48.7 L14.4390244,75 L4,75 C1.790861,75 2.705415e-16,73.209139 0,71 L0,71 L0,5 C-2.705415e-16,2.790861 1.790861,1 4,1 L4,1 Z M23.75,13.7 L15.35,13.7 L15.35,38 L24.25,38 C34.45,38 39.35,33.7 39.35,25.2 C39.35,16.6 33.95,13.7 23.75,13.7 L23.75,13.7 Z"
                      id="P" fill="#FFFFFF" fill-rule="nonzero"></path>
                <path d="M80.900369,76 C97.9372694,76 108,65.8072917 108,53.8333333 C108,43.2447917 102.121771,37.6041667 93.1549815,33.9427083 L83.4907749,29.8854167 C77.2140221,27.4114583 71.9335793,25.53125 71.9335793,20.2864583 C71.9335793,15.4375 76.1180812,12.5677083 82.5940959,12.5677083 C88.6715867,12.5677083 93.5535055,14.7447917 98.2361624,18.6041667 L102.843275,12.9299174 C104.235766,11.2149 103.974297,8.69576747 102.259274,7.303283 C102.105049,7.17806209 101.941709,7.06450453 101.770611,6.96355306 C93.9024627,2.32118435 87.5102912,0 82.5940959,0 C67.6494465,0 57.0885609,9.203125 57.0885609,21.1770833 C57.0885609,31.8645833 64.5608856,37.8020833 72.0332103,40.8697917 L81.896679,45.0260417 C88.4723247,47.796875 92.9557196,49.4791667 92.9557196,54.921875 C92.9557196,60.0677083 88.8708487,63.3333333 81.199262,63.3333333 C77.6722095,63.3333333 72.8595984,61.5280904 66.7614286,57.9176044 C64.2343767,56.4214353 60.9957231,56.9743105 59.1081495,59.224106 L54,65.3125 L54,65.3125 C61.1734317,72.140625 71.0369004,76 80.900369,76 Z"
                      id="s" fill="#FFFFFF" fill-rule="nonzero"></path>
                <rect id="dot" fill="#FFB52F" x="112" y="60" width="20" height="20" rx="4"></rect>
            </g>
        </g>
    </g>

</svg>