<?xml version="1.0" encoding="UTF-8"?>
<svg width="2210px" height="1470px" viewBox="0 0 2210 1470" version="1.1" xmlns="http://www.w3.org/2000/svg" xmlns:xlink="http://www.w3.org/1999/xlink">
    <title>login-bg03</title>
    <g id="页面-1" stroke="none" stroke-width="1" fill="none" fill-rule="evenodd">
        <g id="login-bg03" fill-rule="nonzero">
            <path d="M654.3,826.785561 L751.012,1106.48229 C775.324,1176.79346 867.646,1192.86353 914.212,1134.88997 L1098.127,905.933719 C1142.987,850.08571 1111.671,766.576519 1041.081,753.812203 L760.457,703.072719 C689.328,690.212468 630.7,758.53499 654.3,826.785561 Z" id="形状_1" fill-opacity="0.1" fill="#F7B500"></path>
            <ellipse id="椭圆_1" fill="#F6F9FE" cx="351" cy="350.761387" rx="351" ry="350.761387"></ellipse>
            <path d="M1941.52,1171.48207 C2056.12,1127.15923 2172.94,1152.98066 2202.44,1229.15384 C2231.94,1305.32702 2162.96,1403.01557 2048.36,1447.34541 C1933.76,1491.67525 1816.94,1465.84283 1787.44,1389.66465 C1757.94,1313.48647 1826.92,1215.80292 1941.52,1171.48207 Z" id="voal" fill="#DFF8FF"></path>
            <path d="M1745.52,535.789517 C1883.3,535.789517 1995,647.370612 1995,785.012978 C1995,922.655343 1883.3,1034.23544 1745.52,1034.23544 C1607.74,1034.23544 1496.04,922.654344 1496.04,785.012978 C1496.04,647.371611 1607.74,535.789517 1745.52,535.789517 Z" id="cirlce" fill-opacity="0.1" fill="#F7B500"></path>
            <path d="M1372.29,245.832767 C1375.49877,245.832767 1378.1,248.432224 1378.1,251.638817 C1378.1,254.84541 1375.49877,257.444867 1372.29,257.444867 C1369.08123,257.444867 1366.48,254.84541 1366.48,251.638817 C1366.48441,248.43405 1369.08305,245.837171 1372.29,245.832767 Z M1394.8,245.832767 C1398.00877,245.832767 1400.61,248.432224 1400.61,251.638817 C1400.61,254.84541 1398.00877,257.444867 1394.8,257.444867 C1391.59123,257.444867 1388.99,254.84541 1388.99,251.638817 C1388.99441,248.43405 1391.59305,245.837171 1394.8,245.832767 Z M1417.31,245.832767 C1420.51877,245.832767 1423.12,248.432224 1423.12,251.638817 C1423.12,254.84541 1420.51877,257.444867 1417.31,257.444867 C1414.10123,257.444867 1411.5,254.84541 1411.5,251.638817 C1411.50441,248.43405 1414.10305,245.837171 1417.31,245.832767 Z M1462.28,245.832767 C1464.62993,245.832767 1466.74846,247.247366 1467.64774,249.416938 C1468.54702,251.58651 1468.04994,254.083796 1466.38829,255.744314 C1464.72664,257.404834 1462.22766,257.901575 1460.05661,257.002908 C1457.88556,256.104241 1456.47,253.987146 1456.47,251.638817 C1456.46973,250.098876 1457.08177,248.621929 1458.17142,247.533027 C1459.26106,246.444124 1460.73901,245.832502 1462.28,245.832767 L1462.28,245.832767 Z M1439.8,245.832664 C1442.15173,245.824677 1444.2764,247.234135 1445.18198,249.403054 C1446.08756,251.571974 1445.59543,254.072531 1443.93537,255.737196 C1442.2753,257.401861 1439.77476,257.902276 1437.60125,257.004794 C1435.42775,256.107311 1434.00997,253.988961 1434.00997,251.638817 C1434.00735,250.101607 1434.61587,248.626302 1435.70171,247.537456 C1436.78754,246.44861 1438.26174,245.835415 1439.8,245.832664 Z M1484.79,245.832767 C1487.13993,245.832767 1489.25846,247.247366 1490.15774,249.416938 C1491.05702,251.58651 1490.55994,254.083796 1488.89829,255.744314 C1487.23664,257.404834 1484.73766,257.901575 1482.56661,257.002908 C1480.39556,256.104241 1478.98,253.987146 1478.98,251.638817 C1478.97973,250.098876 1479.59177,248.621929 1480.68142,247.533027 C1481.77106,246.444124 1483.24901,245.832502 1484.79,245.832767 L1484.79,245.832767 Z M1507.3,245.832767 C1510.50877,245.832767 1513.11,248.432224 1513.11,251.638817 C1513.11,254.84541 1510.50877,257.444867 1507.3,257.444867 C1504.09123,257.444867 1501.49,254.84541 1501.49,251.638817 C1501.48973,250.098876 1502.10177,248.621929 1503.19142,247.533027 C1504.28106,246.444124 1505.75901,245.832502 1507.3,245.832767 L1507.3,245.832767 Z M1529.81,245.832767 C1533.01877,245.832767 1535.62,248.432224 1535.62,251.638817 C1535.62,254.84541 1533.01877,257.444867 1529.81,257.444867 C1526.60123,257.444867 1524,254.84541 1524,251.638817 C1523.99973,250.098876 1524.61177,248.621929 1525.70142,247.533027 C1526.79106,246.444124 1528.26901,245.832502 1529.81,245.832767 L1529.81,245.832767 Z M1552.29,245.832536 C1554.64262,245.820627 1556.77034,247.227503 1557.67908,249.396086 C1558.58782,251.56467 1558.09817,254.066856 1556.43891,255.733597 C1554.77965,257.400338 1552.27833,257.902598 1550.10359,257.005716 C1547.92886,256.108835 1546.50997,253.989867 1546.50997,251.638817 C1546.50446,248.441633 1549.09066,245.843787 1552.29,245.832536 L1552.29,245.832536 Z M1597.28,245.832767 C1600.48877,245.832767 1603.09,248.432224 1603.09,251.638817 C1603.09,254.84541 1600.48877,257.444867 1597.28,257.444867 C1594.07123,257.444867 1591.47,254.84541 1591.47,251.638817 C1591.46973,250.098876 1592.08177,248.621929 1593.17142,247.533027 C1594.26106,246.444124 1595.73901,245.832502 1597.28,245.832767 L1597.28,245.832767 Z M1574.77,245.832767 C1577.97877,245.832767 1580.58,248.432224 1580.58,251.638817 C1580.58,254.84541 1577.97877,257.444867 1574.77,257.444867 C1571.56123,257.444867 1568.96,254.84541 1568.96,251.638817 C1568.95973,250.098876 1569.57177,248.621929 1570.66142,247.533027 C1571.75106,246.444124 1573.22901,245.832502 1574.77,245.832767 L1574.77,245.832767 Z M1619.79,245.832767 C1622.99877,245.832767 1625.6,248.432224 1625.6,251.638817 C1625.6,254.84541 1622.99877,257.444867 1619.79,257.444867 C1616.58123,257.444867 1613.98,254.84541 1613.98,251.638817 C1613.97973,250.098876 1614.59177,248.621929 1615.68142,247.533027 C1616.77106,246.444124 1618.24901,245.832502 1619.79,245.832767 L1619.79,245.832767 Z M1372.29,268.317471 C1375.49877,268.317471 1378.1,270.916929 1378.1,274.123521 C1378.1,277.330114 1375.49877,279.929572 1372.29,279.929572 C1369.08123,279.929572 1366.48,277.330114 1366.48,274.123521 C1366.48441,270.918755 1369.08305,268.321875 1372.29,268.317471 Z M1394.8,268.317471 C1398.00877,268.317471 1400.61,270.916929 1400.61,274.123521 C1400.61,277.330114 1398.00877,279.929572 1394.8,279.929572 C1391.59123,279.929572 1388.99,277.330114 1388.99,274.123521 C1388.99441,270.918755 1391.59305,268.321875 1394.8,268.317471 Z M1417.31,268.317471 C1420.51877,268.317471 1423.12,270.916929 1423.12,274.123521 C1423.12,277.330114 1420.51877,279.929572 1417.31,279.929572 C1414.10123,279.929572 1411.5,277.330114 1411.5,274.123521 C1411.50441,270.918755 1414.10305,268.321875 1417.31,268.317471 Z M1462.28,268.317471 C1464.62993,268.317471 1466.74846,269.73207 1467.64774,271.901642 C1468.54702,274.071214 1468.04994,276.5685 1466.38829,278.229019 C1464.72664,279.889538 1462.22766,280.386279 1460.05661,279.487612 C1457.88556,278.588946 1456.47,276.47185 1456.47,274.123521 C1456.46973,272.58358 1457.08177,271.106634 1458.17142,270.017731 C1459.26106,268.928828 1460.73901,268.317206 1462.28,268.317471 Z M1439.8,268.317368 C1442.15173,268.309382 1444.2764,269.718839 1445.18198,271.887758 C1446.08756,274.056678 1445.59543,276.557235 1443.93537,278.2219 C1442.2753,279.886565 1439.77476,280.386981 1437.60125,279.489498 C1435.42775,278.592016 1434.00997,276.473666 1434.00997,274.123521 C1434.00735,272.586311 1434.61587,271.111007 1435.70171,270.02216 C1436.78754,268.933314 1438.26174,268.320119 1439.8,268.317368 Z M1484.79,268.317471 C1487.13993,268.317471 1489.25846,269.73207 1490.15774,271.901642 C1491.05702,274.071214 1490.55994,276.5685 1488.89829,278.229019 C1487.23664,279.889538 1484.73766,280.386279 1482.56661,279.487612 C1480.39556,278.588946 1478.98,276.47185 1478.98,274.123521 C1478.97973,272.58358 1479.59177,271.106634 1480.68142,270.017731 C1481.77106,268.928828 1483.24901,268.317206 1484.79,268.317471 Z M1507.3,268.317471 C1510.50877,268.317471 1513.11,270.916929 1513.11,274.123521 C1513.11,277.330114 1510.50877,279.929572 1507.3,279.929572 C1504.09123,279.929572 1501.49,277.330114 1501.49,274.123521 C1501.48973,272.58358 1502.10177,271.106634 1503.19142,270.017731 C1504.28106,268.928828 1505.75901,268.317206 1507.3,268.317471 Z M1529.81,268.317471 C1533.01877,268.317471 1535.62,270.916929 1535.62,274.123521 C1535.62,277.330114 1533.01877,279.929572 1529.81,279.929572 C1526.60123,279.929572 1524,277.330114 1524,274.123521 C1523.99973,272.58358 1524.61177,271.106634 1525.70142,270.017731 C1526.79106,268.928828 1528.26901,268.317206 1529.81,268.317471 Z M1552.29,268.31724 C1554.64262,268.305331 1556.77034,269.712207 1557.67908,271.88079 C1558.58782,274.049374 1558.09817,276.551561 1556.43891,278.218301 C1554.77965,279.885042 1552.27833,280.387302 1550.10359,279.49042 C1547.92886,278.59354 1546.50997,276.474571 1546.50997,274.123521 C1546.50446,270.926337 1549.09066,268.328492 1552.29,268.31724 Z M1597.28,268.317471 C1600.48877,268.317471 1603.09,270.916929 1603.09,274.123521 C1603.09,277.330114 1600.48877,279.929572 1597.28,279.929572 C1594.07123,279.929572 1591.47,277.330114 1591.47,274.123521 C1591.46973,272.58358 1592.08177,271.106634 1593.17142,270.017731 C1594.26106,268.928828 1595.73901,268.317206 1597.28,268.317471 Z M1574.77,268.317471 C1577.97877,268.317471 1580.58,270.916929 1580.58,274.123521 C1580.58,277.330114 1577.97877,279.929572 1574.77,279.929572 C1571.56123,279.929572 1568.96,277.330114 1568.96,274.123521 C1568.95973,272.58358 1569.57177,271.106634 1570.66142,270.017731 C1571.75106,268.928828 1573.22901,268.317206 1574.77,268.317471 L1574.77,268.317471 Z M1619.79,268.317471 C1622.99877,268.317471 1625.6,270.916929 1625.6,274.123521 C1625.6,277.330114 1622.99877,279.929572 1619.79,279.929572 C1616.58123,279.929572 1613.98,277.330114 1613.98,274.123521 C1613.97973,272.58358 1614.59177,271.106634 1615.68142,270.017731 C1616.77106,268.928828 1618.24901,268.317206 1619.79,268.317471 Z M1372.29,290.802175 C1375.49877,290.802175 1378.1,293.401633 1378.1,296.608226 C1378.1,299.814818 1375.49877,302.414276 1372.29,302.414276 C1369.08123,302.414276 1366.48,299.814818 1366.48,296.608226 C1366.48441,293.403459 1369.08305,290.806579 1372.29,290.802175 Z M1394.8,290.802175 C1398.00877,290.802175 1400.61,293.401633 1400.61,296.608226 C1400.61,299.814818 1398.00877,302.414276 1394.8,302.414276 C1391.59123,302.414276 1388.99,299.814818 1388.99,296.608226 C1388.99441,293.403459 1391.59305,290.806579 1394.8,290.802175 Z M1417.31,290.802175 C1420.51877,290.802175 1423.12,293.401633 1423.12,296.608226 C1423.12,299.814818 1420.51877,302.414276 1417.31,302.414276 C1414.10123,302.414276 1411.5,299.814818 1411.5,296.608226 C1411.50441,293.403459 1414.10305,290.806579 1417.31,290.802175 Z M1462.28,290.802175 C1464.62993,290.802175 1466.74846,292.216774 1467.64774,294.386346 C1468.54702,296.555918 1468.04994,299.053204 1466.38829,300.713723 C1464.72664,302.374242 1462.22766,302.870983 1460.05661,301.972317 C1457.88556,301.07365 1456.47,298.956554 1456.47,296.608226 C1456.46973,295.068284 1457.08177,293.591338 1458.17142,292.502436 C1459.26106,291.413533 1460.73901,290.801911 1462.28,290.802175 Z M1439.8,290.802072 C1442.15173,290.794086 1444.2764,292.203543 1445.18198,294.372463 C1446.08756,296.541382 1445.59543,299.041939 1443.93537,300.706605 C1442.2753,302.371269 1439.77476,302.871685 1437.60125,301.974202 C1435.42775,301.07672 1434.00997,298.95837 1434.00997,296.608226 C1434.00735,295.071015 1434.61587,293.595711 1435.70171,292.506865 C1436.78754,291.418018 1438.26174,290.804824 1439.8,290.802072 Z M1484.79,290.802175 C1487.13993,290.802175 1489.25846,292.216774 1490.15774,294.386346 C1491.05702,296.555918 1490.55994,299.053204 1488.89829,300.713723 C1487.23664,302.374242 1484.73766,302.870983 1482.56661,301.972317 C1480.39556,301.07365 1478.98,298.956554 1478.98,296.608226 C1478.97973,295.068284 1479.59177,293.591338 1480.68142,292.502436 C1481.77106,291.413533 1483.24901,290.801911 1484.79,290.802175 Z M1507.3,290.802175 C1510.50877,290.802175 1513.11,293.401633 1513.11,296.608226 C1513.11,299.814818 1510.50877,302.414276 1507.3,302.414276 C1504.09123,302.414276 1501.49,299.814818 1501.49,296.608226 C1501.48973,295.068284 1502.10177,293.591338 1503.19142,292.502436 C1504.28106,291.413533 1505.75901,290.801911 1507.3,290.802175 Z M1529.81,290.802175 C1533.01877,290.802175 1535.62,293.401633 1535.62,296.608226 C1535.62,299.814818 1533.01877,302.414276 1529.81,302.414276 C1526.60123,302.414276 1524,299.814818 1524,296.608226 C1523.99973,295.068284 1524.61177,293.591338 1525.70142,292.502436 C1526.79106,291.413533 1528.26901,290.801911 1529.81,290.802175 Z M1552.29,290.801945 C1554.64262,290.790036 1556.77034,292.196912 1557.67908,294.365494 C1558.58782,296.534078 1558.09817,299.036265 1556.43891,300.703005 C1554.77965,302.369746 1552.27833,302.872007 1550.10359,301.975125 C1547.92886,301.078244 1546.50997,298.959275 1546.50997,296.608226 C1546.50446,293.411042 1549.09066,290.813196 1552.29,290.801945 Z M1597.28,290.802175 C1600.48877,290.802175 1603.09,293.401633 1603.09,296.608226 C1603.09,299.814818 1600.48877,302.414276 1597.28,302.414276 C1594.07123,302.414276 1591.47,299.814818 1591.47,296.608226 C1591.46973,295.068284 1592.08177,293.591338 1593.17142,292.502436 C1594.26106,291.413533 1595.73901,290.801911 1597.28,290.802175 Z M1574.77,290.802175 C1577.97877,290.802175 1580.58,293.401633 1580.58,296.608226 C1580.58,299.814818 1577.97877,302.414276 1574.77,302.414276 C1571.56123,302.414276 1568.96,299.814818 1568.96,296.608226 C1568.95973,295.068284 1569.57177,293.591338 1570.66142,292.502436 C1571.75106,291.413533 1573.22901,290.801911 1574.77,290.802175 L1574.77,290.802175 Z M1619.79,290.802175 C1622.99877,290.802175 1625.6,293.401633 1625.6,296.608226 C1625.6,299.814818 1622.99877,302.414276 1619.79,302.414276 C1616.58123,302.414276 1613.98,299.814818 1613.98,296.608226 C1613.97973,295.068284 1614.59177,293.591338 1615.68142,292.502436 C1616.77106,291.413533 1618.24901,290.801911 1619.79,290.802175 Z M1372.29,313.28688 C1375.49877,313.28688 1378.1,315.886337 1378.1,319.09293 C1378.1,322.299523 1375.49877,324.89898 1372.29,324.89898 C1369.08123,324.89898 1366.48,322.299523 1366.48,319.09293 C1366.48771,315.890505 1369.08539,313.29727 1372.29,313.292876 L1372.29,313.28688 Z M1394.8,313.28688 C1398.00877,313.28688 1400.61,315.886337 1400.61,319.09293 C1400.61,322.299523 1398.00877,324.89898 1394.8,324.89898 C1391.59123,324.89898 1388.99,322.299523 1388.99,319.09293 C1388.99771,315.890505 1391.59539,313.29727 1394.8,313.292876 L1394.8,313.28688 Z M1417.31,313.28688 C1420.51877,313.28688 1423.12,315.886337 1423.12,319.09293 C1423.12,322.299523 1420.51877,324.89898 1417.31,324.89898 C1414.10123,324.89898 1411.5,322.299523 1411.5,319.09293 C1411.50771,315.890505 1414.10539,313.29727 1417.31,313.292876 L1417.31,313.28688 Z M1462.28,313.28688 C1464.62993,313.28688 1466.74846,314.701478 1467.64774,316.87105 C1468.54702,319.040623 1468.04994,321.537909 1466.38829,323.198427 C1464.72664,324.858947 1462.22766,325.355688 1460.05661,324.457021 C1457.88556,323.558354 1456.47,321.441258 1456.47,319.09293 C1456.47276,315.88845 1459.07334,313.292323 1462.28,313.292876 L1462.28,313.28688 Z M1439.8,313.286777 C1442.15173,313.27879 1444.2764,314.688247 1445.18198,316.857167 C1446.08756,319.026086 1445.59543,321.526643 1443.93537,323.191309 C1442.2753,324.855974 1439.77476,325.356389 1437.60125,324.458907 C1435.42775,323.561424 1434.01,321.443074 1434.01,319.09293 C1434.00779,315.894194 1436.59909,313.29839 1439.8,313.292876 L1439.8,313.286777 Z M1484.79,313.28688 C1487.13993,313.28688 1489.25846,314.701478 1490.15774,316.87105 C1491.05702,319.040623 1490.55994,321.537909 1488.89829,323.198427 C1487.23664,324.858947 1484.73766,325.355688 1482.56661,324.457021 C1480.39556,323.558354 1478.98,321.441258 1478.98,319.09293 C1478.98276,315.88845 1481.58334,313.292323 1484.79,313.292876 L1484.79,313.28688 Z M1507.3,313.28688 C1510.50877,313.28688 1513.11,315.886337 1513.11,319.09293 C1513.11,322.299523 1510.50877,324.89898 1507.3,324.89898 C1504.09123,324.89898 1501.49,322.299523 1501.49,319.09293 C1501.49276,315.88845 1504.09334,313.292323 1507.3,313.292876 L1507.3,313.28688 Z M1529.81,313.28688 C1533.01877,313.28688 1535.62,315.886337 1535.62,319.09293 C1535.62,322.299523 1533.01877,324.89898 1529.81,324.89898 C1526.60123,324.89898 1524,322.299523 1524,319.09293 C1524.00276,315.88845 1526.60334,313.292323 1529.81,313.292876 L1529.81,313.28688 Z M1552.29,313.286649 C1554.64262,313.27474 1556.77034,314.681616 1557.67908,316.850199 C1558.58782,319.018782 1558.09817,321.520969 1556.43891,323.187709 C1554.77965,324.854451 1552.27833,325.356711 1550.10359,324.459829 C1547.92886,323.562948 1546.51,321.44398 1546.51,319.09293 C1546.50778,315.898085 1549.093,313.303891 1552.29,313.292876 L1552.29,313.286649 Z M1597.28,313.28688 C1600.48877,313.28688 1603.09,315.886337 1603.09,319.09293 C1603.09,322.299523 1600.48877,324.89898 1597.28,324.89898 C1594.07123,324.89898 1591.47,322.299523 1591.47,319.09293 C1591.47276,315.88845 1594.07334,313.292323 1597.28,313.292876 L1597.28,313.28688 Z M1574.77,313.28688 C1577.97877,313.28688 1580.58,315.886337 1580.58,319.09293 C1580.58,322.299523 1577.97877,324.89898 1574.77,324.89898 C1571.56123,324.89898 1568.96,322.299523 1568.96,319.09293 C1568.96276,315.88845 1571.56334,313.292323 1574.77,313.292876 L1574.77,313.28688 Z M1619.79,313.28688 C1622.99877,313.28688 1625.6,315.886337 1625.6,319.09293 C1625.6,322.299523 1622.99877,324.89898 1619.79,324.89898 C1616.58123,324.89898 1613.98,322.299523 1613.98,319.09293 C1613.98276,315.88845 1616.58334,313.292323 1619.79,313.292876 L1619.79,313.28688 Z" id="dot-rect" fill="#CEEAFF"></path>
            <path d="M1253.74,445.773753 C1253.74,445.773753 1206.73,459.337525 1187.02,472.576519 C1167.31,485.815513 1153.899,496.160476 1163.54,534.626309 C1173.181,573.092141 1235.98,669.744392 1303.34,721.499184 C1347.63,755.532033 1370.34,745.50985 1389.27,709.528328 C1408.2,673.546805 1472.47,554.015119 1466.57,476.776662 C1463.78,440.251509 1458.33,429.6807 1423.22,424.038538 C1402.26,420.66983 1295.91,430.870891 1253.74,445.773753 Z" id="形状_2" fill="#DFF8FF"></path>
        </g>
    </g>
</svg>